<svg width="430" height="96" viewBox="0 0 430 96" fill="none" xmlns="http://www.w3.org/2000/svg">
<path d="M52.4445 70L36.1885 50.096V70H27.2285V25.328H36.1885V45.36L52.4445 25.328H63.2605L44.8285 47.472L63.7725 70H52.4445ZM78.626 25.328V70H69.666V25.328H78.626ZM85.3025 47.6C85.3025 43.2053 86.2838 39.28 88.2465 35.824C90.2518 32.3253 92.9612 29.616 96.3745 27.696C99.8305 25.7333 103.692 24.752 107.959 24.752C112.951 24.752 117.324 26.032 121.079 28.592C124.833 31.152 127.457 34.6933 128.951 39.216H118.647C117.623 37.0827 116.172 35.4827 114.295 34.416C112.46 33.3493 110.327 32.816 107.895 32.816C105.292 32.816 102.967 33.4347 100.919 34.672C98.9132 35.8667 97.3345 37.5733 96.1825 39.792C95.0732 42.0107 94.5185 44.6133 94.5185 47.6C94.5185 50.544 95.0732 53.1467 96.1825 55.408C97.3345 57.6267 98.9132 59.3547 100.919 60.592C102.967 61.7867 105.292 62.384 107.895 62.384C110.327 62.384 112.46 61.8507 114.295 60.784C116.172 59.6747 117.623 58.0533 118.647 55.92H128.951C127.457 60.4853 124.833 64.048 121.079 66.608C117.367 69.1253 112.993 70.384 107.959 70.384C103.692 70.384 99.8305 69.424 96.3745 67.504C92.9612 65.5413 90.2518 62.832 88.2465 59.376C86.2838 55.92 85.3025 51.9947 85.3025 47.6ZM161.82 70L145.564 50.096V70H136.604V25.328H145.564V45.36L161.82 25.328H172.636L154.204 47.472L173.148 70H161.82ZM224.691 25.328V32.56H212.787V70H203.827V32.56H191.923V25.328H224.691ZM240.189 25.328V70H231.229V25.328H240.189ZM246.865 47.6C246.865 43.2053 247.846 39.28 249.809 35.824C251.814 32.3253 254.524 29.616 257.937 27.696C261.393 25.7333 265.254 24.752 269.521 24.752C274.513 24.752 278.886 26.032 282.641 28.592C286.396 31.152 289.02 34.6933 290.513 39.216H280.209C279.185 37.0827 277.734 35.4827 275.857 34.416C274.022 33.3493 271.889 32.816 269.457 32.816C266.854 32.816 264.529 33.4347 262.481 34.672C260.476 35.8667 258.897 37.5733 257.745 39.792C256.636 42.0107 256.081 44.6133 256.081 47.6C256.081 50.544 256.636 53.1467 257.745 55.408C258.897 57.6267 260.476 59.3547 262.481 60.592C264.529 61.7867 266.854 62.384 269.457 62.384C271.889 62.384 274.022 61.8507 275.857 60.784C277.734 59.6747 279.185 58.0533 280.209 55.92H290.513C289.02 60.4853 286.396 64.048 282.641 66.608C278.929 69.1253 274.556 70.384 269.521 70.384C265.254 70.384 261.393 69.424 257.937 67.504C254.524 65.5413 251.814 62.832 249.809 59.376C247.846 55.92 246.865 51.9947 246.865 47.6ZM323.382 70L307.126 50.096V70H298.166V25.328H307.126V45.36L323.382 25.328H334.198L315.766 47.472L334.71 70H323.382ZM349.564 32.56V43.76H364.604V50.864H349.564V62.704H366.524V70H340.604V25.264H366.524V32.56H349.564ZM405.066 25.328V32.56H393.162V70H384.202V32.56H372.298V25.328H405.066Z" fill="#2A2A2A"/>
<path d="M70.7533 11V13M70.7533 17V19M70.7533 23V25M59.5845 11H75.2208C75.8133 11 76.3814 11.2107 76.8003 11.5858C77.2193 11.9609 77.4546 12.4696 77.4546 13V16C76.8622 16 76.294 16.2107 75.8751 16.5858C75.4562 16.9609 75.2208 17.4696 75.2208 18C75.2208 18.5304 75.4562 19.0391 75.8751 19.4142C76.294 19.7893 76.8622 20 77.4546 20V23C77.4546 23.5304 77.2193 24.0391 76.8003 24.4142C76.3814 24.7893 75.8133 25 75.2208 25H59.5845C58.992 25 58.4239 24.7893 58.005 24.4142C57.5861 24.0391 57.3507 23.5304 57.3507 23V20C57.9431 20 58.5113 19.7893 58.9302 19.4142C59.3491 19.0391 59.5845 18.5304 59.5845 18C59.5845 17.4696 59.3491 16.9609 58.9302 16.5858C58.5113 16.2107 57.9431 16 57.3507 16V13C57.3507 12.4696 57.5861 11.9609 58.005 11.5858C58.4239 11.2107 58.992 11 59.5845 11Z" stroke="black" stroke-width="2" stroke-linecap="round" stroke-linejoin="round"/>
<path opacity="0.2" d="M268.915 42.9544C268.915 42.641 269.054 42.3404 269.302 42.1188C269.549 41.8971 269.885 41.7726 270.235 41.7726H288.714C289.064 41.7726 289.4 41.8971 289.648 42.1188C289.895 42.3404 290.034 42.641 290.034 42.9544V46.0744C290.034 46.1536 289.981 46.2245 289.902 46.2541" fill="black"/>
<path fill-rule="evenodd" clip-rule="evenodd" d="M266.935 41.7727C266.935 41.3026 267.144 40.8517 267.515 40.5192C267.886 40.1868 268.39 40 268.915 40H287.394C287.92 40 288.423 40.1868 288.794 40.5192C289.166 40.8517 289.374 41.3026 289.374 41.7727V44.8927C289.374 45.2106 289.162 45.4955 288.836 45.6172C288.641 45.6899 288.475 45.8124 288.359 45.9694C288.242 46.1264 288.18 46.3108 288.18 46.4994C288.18 46.688 288.242 46.8724 288.359 47.0294C288.475 47.1864 288.641 47.3089 288.836 47.3816C288.995 47.4413 289.132 47.542 289.228 47.6709C289.323 47.7998 289.374 47.9512 289.374 48.1061V51.2273C289.374 51.6974 289.166 52.1483 288.794 52.4808C288.423 52.8132 287.92 53 287.394 53H268.915C268.39 53 267.886 52.8132 267.515 52.4808C267.144 52.1483 266.935 51.6974 266.935 51.2273V48.1073C266.935 47.7894 267.148 47.5045 267.474 47.3816C267.668 47.3089 267.834 47.1864 267.951 47.0294C268.068 46.8724 268.13 46.688 268.13 46.4994C268.13 46.3108 268.068 46.1264 267.951 45.9694C267.834 45.8124 267.668 45.6899 267.474 45.6172C267.314 45.5576 267.178 45.4571 267.082 45.3284C266.987 45.1997 266.935 45.0486 266.935 44.8939V41.7727ZM268.915 41.1818C268.74 41.1818 268.572 41.2441 268.448 41.3549C268.325 41.4657 268.255 41.616 268.255 41.7727V44.6457C269.85 45.4529 269.85 47.5471 268.255 48.3543V51.2273C268.255 51.384 268.325 51.5343 268.448 51.6451C268.572 51.7559 268.74 51.8182 268.915 51.8182H287.394C287.569 51.8182 287.737 51.7559 287.861 51.6451C287.985 51.5343 288.054 51.384 288.054 51.2273V48.3543C286.46 47.5471 286.46 45.4529 288.054 44.6457V41.7727C288.054 41.616 287.985 41.4657 287.861 41.3549C287.737 41.2441 287.569 41.1818 287.394 41.1818H268.915Z" fill="black"/>
<path fill-rule="evenodd" clip-rule="evenodd" d="M281.455 50.3409C281.717 50.3409 281.969 50.4343 282.155 50.6005C282.34 50.7667 282.445 50.9922 282.445 51.2273V51.8182C282.445 52.0533 282.34 52.2787 282.155 52.4449C281.969 52.6112 281.717 52.7045 281.455 52.7045C281.192 52.7045 280.94 52.6112 280.755 52.4449C280.569 52.2787 280.465 52.0533 280.465 51.8182V51.2273C280.465 50.9922 280.569 50.7667 280.755 50.6005C280.94 50.4343 281.192 50.3409 281.455 50.3409ZM281.455 40.2954C281.717 40.2954 281.969 40.3888 282.155 40.5551C282.34 40.7213 282.445 40.9467 282.445 41.1818V41.7727C282.445 42.0078 282.34 42.2332 282.155 42.3995C281.969 42.5657 281.717 42.6591 281.455 42.6591C281.192 42.6591 280.94 42.5657 280.755 42.3995C280.569 42.2332 280.465 42.0078 280.465 41.7727V41.1818C280.465 40.9467 280.569 40.7213 280.755 40.5551C280.94 40.3888 281.192 40.2954 281.455 40.2954ZM281.455 43.5454C281.717 43.5454 281.969 43.6388 282.155 43.8051C282.34 43.9713 282.445 44.1967 282.445 44.4318V45.0227C282.445 45.2578 282.34 45.4832 282.155 45.6495C281.969 45.8157 281.717 45.9091 281.455 45.9091C281.192 45.9091 280.94 45.8157 280.755 45.6495C280.569 45.4832 280.465 45.2578 280.465 45.0227V44.4318C280.465 44.1967 280.569 43.9713 280.755 43.8051C280.94 43.6388 281.192 43.5454 281.455 43.5454ZM281.455 47.0909C281.717 47.0909 281.969 47.1843 282.155 47.3505C282.34 47.5167 282.445 47.7422 282.445 47.9773V48.5682C282.445 48.8033 282.34 49.0287 282.155 49.1949C281.969 49.3612 281.717 49.4545 281.455 49.4545C281.192 49.4545 280.94 49.3612 280.755 49.1949C280.569 49.0287 280.465 48.8033 280.465 48.5682V47.9773C280.465 47.7422 280.569 47.5167 280.755 47.3505C280.94 47.1843 281.192 47.0909 281.455 47.0909Z" fill="black"/>
</svg>
